<svg xmlns="http://www.w3.org/2000/svg" xml:space="preserve" id="Layer_1" x="0" y="0" style="enable-background:new 0 0 1000 1000" version="1.1" viewBox="0 0 1000 1000"><style>.st0{fill:#3496d3}</style><g id="Center_Cirkle"><path d="M461.5 538v.1-.1zM461.6 538h-.1v-.1zM461.6 538.1h-.1z" class="st0"/></g><path id="Cirkel5" d="M911.8 356.2c-35.4 0-64.8 25.5-70.9 59.1l-274.8 67c-7.9-14.9-19-27.9-32.2-38.1l91.2-211.8c1.9.1 3.9.2 5.8.2 49.1 0 89-39.8 89-89 0-49.1-39.9-89-89-89-49.2 0-89 39.9-89 89 0 26.1 11.2 49.6 29.1 65.9L480 421c-6-.9-12.1-1.4-18.4-1.4-22.6 0-43.7 6.3-61.7 17.3L240.7 281.8c2.8-7.7 4.3-16 4.3-24.7 0-39.6-32.2-71.8-71.8-71.8-39.7 0-71.8 32.2-71.8 71.8 0 39.7 32.1 71.8 71.8 71.8 9.4 0 18.3-1.8 26.5-5.1L359 479c-10 17.4-15.8 37.5-15.8 59 0 17.1 3.6 33.3 10.1 48L157.2 740.5c-13.3-7.9-28.8-12.5-45.4-12.5-49.1 0-89 39.9-89 89 0 49.2 39.9 89 89 89 49.2 0 89-39.8 89-89 0-11.1-2-21.8-5.8-31.6L389.7 632c19.9 15.3 44.8 24.3 71.9 24.3 3.3 0 6.7-.1 9.9-.4l62.2 179c-13.5 12.8-21.8 31-21.8 51 0 39 31.6 70.6 70.6 70.6s70.6-31.6 70.6-70.6c0-36.7-28-66.9-63.9-70.3l-62.2-179c31.6-21 52.6-56.7 53-97.4l274.8-67c13.2 17 33.8 28 57 28 39.8 0 72.1-32.3 72.1-72.1s-32.3-71.9-72.1-71.9zM461.5 538.1v-.2.2z" class="st0"/><g id="Arms"><path d="M461.6 538h-.1v-.1zM461.6 538.1h-.1zM461.5 538v.1-.1z" class="st0"/><path d="M461.6 538h-.1v-.1zM461.5 538v.1-.1z" class="st0"/><path d="M461.6 538h-.1v-.1zM461.6 538.1h-.1zM461.5 538v.1-.1z" class="st0"/><path d="M461.6 538h-.1v-.1zM461.6 538.1h-.1zM461.5 538v.1-.1zM461.6 538.1h-.1z" class="st0"/></g></svg>